<?xml version="1.0" encoding="UTF-8" standalone="no"?>
<!-- Generator: Adobe Illustrator 19.0.0, SVG Export Plug-In . SVG Version: 6.00 Build 0)  -->

<svg
   xmlns:dc="http://purl.org/dc/elements/1.1/"
   xmlns:cc="http://creativecommons.org/ns#"
   xmlns:rdf="http://www.w3.org/1999/02/22-rdf-syntax-ns#"
   xmlns:svg="http://www.w3.org/2000/svg"
   xmlns="http://www.w3.org/2000/svg"
   xmlns:sodipodi="http://sodipodi.sourceforge.net/DTD/sodipodi-0.dtd"
   xmlns:inkscape="http://www.inkscape.org/namespaces/inkscape"
   version="1.1"
   id="Layer_1"
   x="0px"
   y="0px"
   viewBox="0 0 548.51281 185.86807"
   xml:space="preserve"
   sodipodi:docname="rimbunio_logo_white_v2_2_template_friendly_white.svg"
   inkscape:version="0.92.5 (2060ec1f9f, 2020-04-08)"
   inkscape:export-filename="/home/chris/Documents/GreenCityWatch/DT4D/rimbunio_logo_v2_2_template_friendly_white.png"
   inkscape:export-xdpi="95.699997"
   inkscape:export-ydpi="95.699997"
   width="548.51282"
   height="185.86807"><metadata
   id="metadata907"><rdf:RDF><cc:Work
       rdf:about=""><dc:format>image/svg+xml</dc:format><dc:type
         rdf:resource="http://purl.org/dc/dcmitype/StillImage" /><dc:title></dc:title></cc:Work></rdf:RDF></metadata><defs
   id="defs905"><clipPath
     id="clipPath19131-1-4"
     clipPathUnits="userSpaceOnUse"><path
       inkscape:connector-curvature="0"
       id="path19129-4-2"
       d="M 0,612 H 792 V 0 H 0 Z" /></clipPath></defs><sodipodi:namedview
   pagecolor="#ffffff"
   bordercolor="#666666"
   borderopacity="1"
   objecttolerance="10"
   gridtolerance="10"
   guidetolerance="10"
   inkscape:pageopacity="0"
   inkscape:pageshadow="2"
   inkscape:window-width="1848"
   inkscape:window-height="1016"
   id="namedview903"
   showgrid="false"
   inkscape:zoom="0.6267272"
   inkscape:cx="219.85389"
   inkscape:cy="148.09949"
   inkscape:window-x="1992"
   inkscape:window-y="27"
   inkscape:window-maximized="1"
   inkscape:current-layer="layer4" />
<style
   type="text/css"
   id="style881">
	.st0{fill:#FFFFFF;}
</style>

<flowRoot
   transform="matrix(1.0846215,0,0,1.0846215,-372.57813,-205.87082)"
   style="font-style:normal;font-variant:normal;font-weight:bold;font-stretch:normal;font-size:40px;line-height:1.25;font-family:'URW Gothic L';-inkscape-font-specification:'URW Gothic L Bold';letter-spacing:0px;word-spacing:0px;fill:#ffffff;fill-opacity:0.8957346;stroke:none"
   id="flowRoot23113"
   xml:space="preserve"><flowRegion
     style="font-style:normal;font-variant:normal;font-weight:bold;font-stretch:normal;font-family:'URW Gothic L';-inkscape-font-specification:'URW Gothic L Bold';fill:#ffffff;fill-opacity:0.8957346"
     id="flowRegion23115"><rect
       style="font-style:normal;font-variant:normal;font-weight:bold;font-stretch:normal;font-family:'URW Gothic L';-inkscape-font-specification:'URW Gothic L Bold';fill:#ffffff;fill-opacity:0.8957346"
       y="52.768139"
       x="295.9747"
       height="103.21513"
       width="208.5874"
       id="rect23117" /></flowRegion><flowPara
     id="flowPara23119"><flowSpan
       style="font-style:normal;font-variant:normal;font-weight:bold;font-stretch:normal;font-family:'URW Gothic L';-inkscape-font-specification:'URW Gothic L Bold';fill:#ffffff;fill-opacity:0.8957346"
       id="flowSpan5354">rimbun</flowSpan><flowSpan
       id="flowSpan23674"
       style="font-style:normal;font-variant:normal;font-weight:bold;font-stretch:normal;font-family:'URW Gothic L';-inkscape-font-specification:'URW Gothic L Bold';fill:#ffffff;fill-opacity:0.8957346">.io</flowSpan></flowPara></flowRoot><g
   inkscape:groupmode="layer"
   id="layer4"
   inkscape:label="Layer 1"
   style="display:none"><rect
     style="opacity:0.76300001;fill:#019766;fill-opacity:1;stroke:none;stroke-width:0.37795275;stroke-miterlimit:4;stroke-dasharray:none;stroke-opacity:1"
     id="rect19207"
     width="548.51282"
     height="185.86807"
     x="0.48370653"
     y="-0.099094741" /></g><g
   inkscape:groupmode="layer"
   id="layer5"
   inkscape:label="Layer 2"><path
     sodipodi:nodetypes="sscsscsssccccssccssccsccscssscscccscssscsccccsccscccscssscsscccssscs"
     inkscape:connector-curvature="0"
     id="path11130"
     d="m 48.898399,164.12953 c -4.465923,-5.06095 -5.536005,-6.88108 -7.60646,-12.9378 -1.325168,-3.87663 -3.027483,-10.19332 -3.782928,-14.03714 -1.327412,-6.75419 -1.520176,-7.1391 -5.740703,-11.46249 -3.681249,-3.77099 -4.664047,-5.41173 -6.257609,-10.44672 -1.827708,-5.77483 -1.849022,-6.14552 -0.641768,-11.16948 1.631734,-6.790628 1.778535,-7.039483 5.861609,-9.936867 4.898319,-3.475895 7.642514,-8.491224 8.736434,-15.966775 0.806082,-5.508333 1.23614,-6.531392 4.664888,-11.096377 4.204635,-5.597891 4.25817,-5.579599 5.756191,1.964101 1.042161,5.248105 6.019099,15.234576 10.785233,21.641167 1.55423,2.089152 3.99735,6.559344 5.42915,9.933711 l 2.60331,6.13518 -1.50958,5.81945 c -1.44501,5.57065 -1.71328,5.99252 -6.27555,9.86968 -3.735941,3.17481 -5.126299,3.93103 -6.432895,3.49904 -0.916799,-0.3032 -3.043999,-0.63584 -4.727087,-0.74011 -4.559251,-0.28076 -8.859676,-4.64797 -10.159947,-10.31557 -1.360973,-5.93203 -0.25677,-8.44722 5.354708,-12.19892 4.107567,-2.7461 4.516654,-2.858125 7.175996,-1.96501 3.664422,1.23075 6.060419,5.76545 4.728022,8.94839 -0.750678,1.79321 -1.293104,2.04955 -4.164437,1.96806 -5.050074,-0.14334 -5.238538,-0.086 -5.070142,1.54941 0.206288,2.00155 2.25895,3.734 3.772707,3.18388 0.659281,-0.23963 2.428904,-0.80072 3.932503,-1.24689 2.355955,-0.69911 2.891681,-1.31024 3.876131,-4.42168 1.038081,-3.28095 1.007701,-3.86803 -0.332865,-6.43286 -2.352746,-4.501442 -3.250786,-5.376297 -6.751236,-6.57682 -3.269482,-1.121249 -3.345142,-1.103612 -8.24103,1.927268 -3.588263,2.221372 -5.367359,3.913932 -6.497426,6.181382 -1.543579,3.09716 -1.542457,3.17491 0.133371,9.5916 1.568414,6.00542 1.966874,6.70197 5.558098,9.71627 3.691469,3.09853 4.102114,3.25209 8.972324,3.35515 5.557506,0.11747 6.194227,-0.14802 11.896255,-4.95728 3.68574,-3.10878 3.92232,-3.5409 5.67676,-10.36811 l 1.83073,-7.12411 -3.02629,-7.428462 c -1.66446,-4.08563 -5.49366,-11.160975 -8.509333,-15.723031 -6.105416,-9.236075 -6.217847,-9.530768 -7.369446,-19.315656 -0.450344,-3.826305 -0.948365,-7.41301 -1.10679,-7.970549 -0.170453,-0.600043 -2.623039,1.344333 -6.01106,4.765602 l -5.723128,5.779156 -2.457448,9.301202 c -2.242559,8.487672 -2.766943,9.655694 -5.995697,13.35486 -1.94609,2.229472 -4.927143,6.092079 -6.62469,8.583369 -2.813529,4.129159 -3.115202,5.029449 -3.411142,10.180289 -0.240565,4.19037 0.02805,6.41192 1.043127,8.59687 0.752267,1.62054 1.109657,2.91679 0.79421,2.88071 -0.315384,-0.0368 -2.4127,-1.12882 -4.660557,-2.42813 l -4.086969,-2.36237 -0.443676,-9.4481 -0.443707,-9.448062 5.470784,-7.488887 c 3.596427,-4.923092 5.375337,-8.020532 5.192201,-9.040475 -0.153314,-0.853385 -0.119971,-5.546973 0.07385,-10.430334 0.342899,-8.640581 0.440995,-9.07014 3.660651,-16.011928 3.151411,-6.794908 3.639274,-7.405016 10.288269,-12.865458 8.905141,-7.313449 11.863196,-12.109652 13.720695,-22.247132 0.708235,-3.865318 1.510173,-7.01511 1.782056,-6.999498 0.271727,0.01558 2.623632,2.482876 5.226105,5.48275 6.406465,7.384777 8.441335,14.137478 9.689755,32.155859 -0.0312,17.493136 10.0569,30.030291 12.64108,46.180887 l 1.15288,7.450088 -2.53096,9.3089 c -2.48546,9.14138 -2.60942,9.38852 -6.88972,13.73356 -10.72238,10.88464 -16.241399,22.27905 -17.850385,36.85347 l -0.950173,8.60733 z"
     style="fill:#ffffff;fill-opacity:1;stroke:none;stroke-width:2.99901581;stroke-miterlimit:4;stroke-dasharray:none;stroke-opacity:1" /></g><g
   inkscape:groupmode="layer"
   id="layer6"
   inkscape:label="Layer 3"><text
     xml:space="preserve"
     style="font-style:normal;font-variant:normal;font-weight:600;font-stretch:normal;font-size:97.23351288px;line-height:1.25;font-family:'URW Gothic';-inkscape-font-specification:'URW Gothic Semi-Bold';letter-spacing:0px;word-spacing:0px;fill:#ffffff;fill-opacity:1;stroke:none;stroke-width:2.43083763"
     x="96.316612"
     y="127.02399"
     id="text18490"><tspan
       sodipodi:role="line"
       id="tspan18488"
       x="96.316612"
       y="127.02399"
       style="font-style:normal;font-variant:normal;font-weight:600;font-stretch:normal;font-family:'URW Gothic';-inkscape-font-specification:'URW Gothic Semi-Bold';fill:#ffffff;fill-opacity:1;stroke-width:2.43083763">rimbun<tspan
   style="fill:#ffffff;fill-opacity:1;stroke-width:2.43083763"
   id="tspan18546">.io</tspan></tspan></text>
</g></svg>